<?xml version="1.0" encoding="UTF-8" standalone="no"?>
<!DOCTYPE svg PUBLIC "-//W3C//DTD SVG 1.1//EN"
 "http://www.w3.org/Graphics/SVG/1.1/DTD/svg11.dtd">
<!-- Generated by graphviz version 2.43.0 (0)
 -->
<!-- Title: snakemake_dag Pages: 1 -->
<svg width="674pt" height="612pt"
 viewBox="0.00 0.00 674.45 612.00" xmlns="http://www.w3.org/2000/svg" xmlns:xlink="http://www.w3.org/1999/xlink">
<g id="graph0" class="graph" transform="scale(1 1) rotate(0) translate(4 608)">
<title>snakemake_dag</title>
<polygon fill="white" stroke="transparent" points="-4,4 -4,-608 670.45,-608 670.45,4 -4,4"/>
<!-- 0 -->
<g id="node1" class="node">
<title>0</title>
<path fill="none" stroke="#56a9d8" stroke-width="2" d="M313.5,-36C313.5,-36 283.5,-36 283.5,-36 277.5,-36 271.5,-30 271.5,-24 271.5,-24 271.5,-12 271.5,-12 271.5,-6 277.5,0 283.5,0 283.5,0 313.5,0 313.5,0 319.5,0 325.5,-6 325.5,-12 325.5,-12 325.5,-24 325.5,-24 325.5,-30 319.5,-36 313.5,-36"/>
<text text-anchor="middle" x="298.5" y="-15.5" font-family="sans" font-size="10.00">all</text>
</g>
<!-- 1 -->
<g id="node2" class="node">
<title>1</title>
<path fill="none" stroke="#d85656" stroke-width="2" d="M333.5,-317C333.5,-317 199.5,-317 199.5,-317 193.5,-317 187.5,-311 187.5,-305 187.5,-305 187.5,-255 187.5,-255 187.5,-249 193.5,-243 199.5,-243 199.5,-243 333.5,-243 333.5,-243 339.5,-243 345.5,-249 345.5,-255 345.5,-255 345.5,-305 345.5,-305 345.5,-311 339.5,-317 333.5,-317"/>
<text text-anchor="middle" x="266.5" y="-305" font-family="sans" font-size="10.00">downscale_bc</text>
<text text-anchor="middle" x="266.5" y="-294" font-family="sans" font-size="10.00">aggregation: monthly&#45;means</text>
<text text-anchor="middle" x="266.5" y="-283" font-family="sans" font-size="10.00">area: New&#45;Caledonia</text>
<text text-anchor="middle" x="266.5" y="-272" font-family="sans" font-size="10.00">period_future: 2071&#45;2100</text>
<text text-anchor="middle" x="266.5" y="-261" font-family="sans" font-size="10.00">period_hist: 1980&#45;2005</text>
<text text-anchor="middle" x="266.5" y="-250" font-family="sans" font-size="10.00">project: CORDEX</text>
</g>
<!-- 1&#45;&gt;0 -->
<g id="edge1" class="edge">
<title>1&#45;&gt;0</title>
<path fill="none" stroke="grey" stroke-width="2" d="M268.18,-242.89C270.49,-201.42 275.54,-131.44 285.5,-72 286.93,-63.46 289,-54.26 291.06,-45.96"/>
<polygon fill="grey" stroke="grey" stroke-width="2" points="294.51,-46.61 293.63,-36.05 287.74,-44.85 294.51,-46.61"/>
</g>
<!-- 12 -->
<g id="node13" class="node">
<title>12</title>
<path fill="none" stroke="#68d856" stroke-width="2" d="M119,-201.5C119,-201.5 12,-201.5 12,-201.5 6,-201.5 0,-195.5 0,-189.5 0,-189.5 0,-161.5 0,-161.5 0,-155.5 6,-149.5 12,-149.5 12,-149.5 119,-149.5 119,-149.5 125,-149.5 131,-155.5 131,-161.5 131,-161.5 131,-189.5 131,-189.5 131,-195.5 125,-201.5 119,-201.5"/>
<text text-anchor="middle" x="65.5" y="-189.5" font-family="sans" font-size="10.00">get_tmf</text>
<text text-anchor="middle" x="65.5" y="-178.5" font-family="sans" font-size="10.00">ds_method: bc</text>
<text text-anchor="middle" x="65.5" y="-167.5" font-family="sans" font-size="10.00">period_eval: 1980&#45;2005</text>
<text text-anchor="middle" x="65.5" y="-156.5" font-family="sans" font-size="10.00">period_proj: 2071&#45;2100</text>
</g>
<!-- 1&#45;&gt;12 -->
<g id="edge22" class="edge">
<title>1&#45;&gt;12</title>
<path fill="none" stroke="grey" stroke-width="2" d="M195.63,-242.86C172.09,-230.86 146.17,-217.64 123.69,-206.18"/>
<polygon fill="grey" stroke="grey" stroke-width="2" points="125.11,-202.97 114.61,-201.55 121.93,-209.21 125.11,-202.97"/>
</g>
<!-- 2 -->
<g id="node3" class="node">
<title>2</title>
<path fill="none" stroke="#d8a456" stroke-width="2" d="M431,-460C431,-460 320,-460 320,-460 314,-460 308,-454 308,-448 308,-448 308,-365 308,-365 308,-359 314,-353 320,-353 320,-353 431,-353 431,-353 437,-353 443,-359 443,-365 443,-365 443,-448 443,-448 443,-454 437,-460 431,-460"/>
<text text-anchor="middle" x="375.5" y="-448" font-family="sans" font-size="10.00">get_cordex</text>
<text text-anchor="middle" x="375.5" y="-437" font-family="sans" font-size="10.00">base: chelsa2</text>
<text text-anchor="middle" x="375.5" y="-426" font-family="sans" font-size="10.00">domain: AUS&#45;22</text>
<text text-anchor="middle" x="375.5" y="-415" font-family="sans" font-size="10.00">downscaling: v0</text>
<text text-anchor="middle" x="375.5" y="-404" font-family="sans" font-size="10.00">ensemble: r1i1p1</text>
<text text-anchor="middle" x="375.5" y="-393" font-family="sans" font-size="10.00">experiment: rcp26</text>
<text text-anchor="middle" x="375.5" y="-382" font-family="sans" font-size="10.00">institute: ICTP</text>
<text text-anchor="middle" x="375.5" y="-371" font-family="sans" font-size="10.00">model: NCC&#45;NorESM1&#45;M</text>
<text text-anchor="middle" x="375.5" y="-360" font-family="sans" font-size="10.00">rcm: RegCM4&#45;7</text>
</g>
<!-- 2&#45;&gt;1 -->
<g id="edge5" class="edge">
<title>2&#45;&gt;1</title>
<path fill="none" stroke="grey" stroke-width="2" d="M329.27,-352.7C321.2,-343.47 312.87,-333.96 305.03,-325.01"/>
<polygon fill="grey" stroke="grey" stroke-width="2" points="307.5,-322.52 298.28,-317.3 302.23,-327.13 307.5,-322.52"/>
</g>
<!-- 7 -->
<g id="node8" class="node">
<title>7</title>
<path fill="none" stroke="#d85656" stroke-width="2" d="M509.5,-317C509.5,-317 375.5,-317 375.5,-317 369.5,-317 363.5,-311 363.5,-305 363.5,-305 363.5,-255 363.5,-255 363.5,-249 369.5,-243 375.5,-243 375.5,-243 509.5,-243 509.5,-243 515.5,-243 521.5,-249 521.5,-255 521.5,-255 521.5,-305 521.5,-305 521.5,-311 515.5,-317 509.5,-317"/>
<text text-anchor="middle" x="442.5" y="-305" font-family="sans" font-size="10.00">downscale_bc</text>
<text text-anchor="middle" x="442.5" y="-294" font-family="sans" font-size="10.00">aggregation: monthly&#45;means</text>
<text text-anchor="middle" x="442.5" y="-283" font-family="sans" font-size="10.00">area: New&#45;Caledonia</text>
<text text-anchor="middle" x="442.5" y="-272" font-family="sans" font-size="10.00">period_future: 2006&#45;2019</text>
<text text-anchor="middle" x="442.5" y="-261" font-family="sans" font-size="10.00">period_hist: 1980&#45;2005</text>
<text text-anchor="middle" x="442.5" y="-250" font-family="sans" font-size="10.00">project: CORDEX</text>
</g>
<!-- 2&#45;&gt;7 -->
<g id="edge13" class="edge">
<title>2&#45;&gt;7</title>
<path fill="none" stroke="grey" stroke-width="2" d="M403.91,-352.7C408.63,-343.94 413.48,-334.92 418.09,-326.37"/>
<polygon fill="grey" stroke="grey" stroke-width="2" points="421.31,-327.76 422.97,-317.3 415.15,-324.45 421.31,-327.76"/>
</g>
<!-- 3 -->
<g id="node4" class="node">
<title>3</title>
<path fill="none" stroke="#56d8b9" stroke-width="2" d="M401,-532C401,-532 350,-532 350,-532 344,-532 338,-526 338,-520 338,-520 338,-508 338,-508 338,-502 344,-496 350,-496 350,-496 401,-496 401,-496 407,-496 413,-502 413,-508 413,-508 413,-520 413,-520 413,-526 407,-532 401,-532"/>
<text text-anchor="middle" x="375.5" y="-511.5" font-family="sans" font-size="10.00">get_chelsa2</text>
</g>
<!-- 3&#45;&gt;1 -->
<g id="edge6" class="edge">
<title>3&#45;&gt;1</title>
<path fill="none" stroke="grey" stroke-width="2" d="M338.77,-495.83C324.03,-487.12 308.26,-475.14 298.5,-460 272.94,-420.34 266.32,-365.98 265.23,-327.6"/>
<polygon fill="grey" stroke="grey" stroke-width="2" points="268.73,-327.17 265.06,-317.23 261.73,-327.28 268.73,-327.17"/>
</g>
<!-- 3&#45;&gt;2 -->
<g id="edge7" class="edge">
<title>3&#45;&gt;2</title>
<path fill="none" stroke="grey" stroke-width="2" d="M375.5,-495.58C375.5,-488.36 375.5,-479.5 375.5,-470.22"/>
<polygon fill="grey" stroke="grey" stroke-width="2" points="379,-470.04 375.5,-460.04 372,-470.04 379,-470.04"/>
</g>
<!-- 3&#45;&gt;7 -->
<g id="edge14" class="edge">
<title>3&#45;&gt;7</title>
<path fill="none" stroke="grey" stroke-width="2" d="M413.15,-496.83C428.25,-488.24 444.04,-476.09 452.5,-460 474.1,-418.9 467.14,-364.92 457.56,-327.03"/>
<polygon fill="grey" stroke="grey" stroke-width="2" points="460.91,-326.03 454.95,-317.28 454.15,-327.84 460.91,-326.03"/>
</g>
<!-- 8 -->
<g id="node9" class="node">
<title>8</title>
<path fill="none" stroke="#56d0d8" stroke-width="2" d="M239.5,-432.5C239.5,-432.5 105.5,-432.5 105.5,-432.5 99.5,-432.5 93.5,-426.5 93.5,-420.5 93.5,-420.5 93.5,-392.5 93.5,-392.5 93.5,-386.5 99.5,-380.5 105.5,-380.5 105.5,-380.5 239.5,-380.5 239.5,-380.5 245.5,-380.5 251.5,-386.5 251.5,-392.5 251.5,-392.5 251.5,-420.5 251.5,-420.5 251.5,-426.5 245.5,-432.5 239.5,-432.5"/>
<text text-anchor="middle" x="172.5" y="-420.5" font-family="sans" font-size="10.00">hist_base</text>
<text text-anchor="middle" x="172.5" y="-409.5" font-family="sans" font-size="10.00">aggregation: monthly&#45;means</text>
<text text-anchor="middle" x="172.5" y="-398.5" font-family="sans" font-size="10.00">base: chelsa2</text>
<text text-anchor="middle" x="172.5" y="-387.5" font-family="sans" font-size="10.00">period_eval: 2006&#45;2019</text>
</g>
<!-- 3&#45;&gt;8 -->
<g id="edge15" class="edge">
<title>3&#45;&gt;8</title>
<path fill="none" stroke="grey" stroke-width="2" d="M338.54,-495.92C317.05,-485.81 289.55,-472.56 265.5,-460 252.15,-453.02 237.9,-445.19 224.68,-437.74"/>
<polygon fill="grey" stroke="grey" stroke-width="2" points="226.13,-434.54 215.71,-432.66 222.69,-440.63 226.13,-434.54"/>
</g>
<!-- 4 -->
<g id="node5" class="node">
<title>4</title>
<path fill="none" stroke="#8fd856" stroke-width="2" stroke-dasharray="5,2" d="M498,-604C498,-604 403,-604 403,-604 397,-604 391,-598 391,-592 391,-592 391,-580 391,-580 391,-574 397,-568 403,-568 403,-568 498,-568 498,-568 504,-568 510,-574 510,-580 510,-580 510,-592 510,-592 510,-598 504,-604 498,-604"/>
<text text-anchor="middle" x="450.5" y="-589" font-family="sans" font-size="10.00">get_area</text>
<text text-anchor="middle" x="450.5" y="-578" font-family="sans" font-size="10.00">area: New&#45;Caledonia</text>
</g>
<!-- 4&#45;&gt;3 -->
<g id="edge8" class="edge">
<title>4&#45;&gt;3</title>
<path fill="none" stroke="grey" stroke-width="2" d="M431.96,-567.7C422.7,-559.05 411.34,-548.45 401.24,-539.03"/>
<polygon fill="grey" stroke="grey" stroke-width="2" points="403.52,-536.37 393.83,-532.1 398.75,-541.49 403.52,-536.37"/>
</g>
<!-- 6 -->
<g id="node7" class="node">
<title>6</title>
<path fill="none" stroke="#567bd8" stroke-width="2" d="M494,-201.5C494,-201.5 387,-201.5 387,-201.5 381,-201.5 375,-195.5 375,-189.5 375,-189.5 375,-161.5 375,-161.5 375,-155.5 381,-149.5 387,-149.5 387,-149.5 494,-149.5 494,-149.5 500,-149.5 506,-155.5 506,-161.5 506,-161.5 506,-189.5 506,-189.5 506,-195.5 500,-201.5 494,-201.5"/>
<text text-anchor="middle" x="440.5" y="-189.5" font-family="sans" font-size="10.00">hist_proj</text>
<text text-anchor="middle" x="440.5" y="-178.5" font-family="sans" font-size="10.00">ds_method: bc</text>
<text text-anchor="middle" x="440.5" y="-167.5" font-family="sans" font-size="10.00">period_eval: 1980&#45;2005</text>
<text text-anchor="middle" x="440.5" y="-156.5" font-family="sans" font-size="10.00">period_proj: 2006&#45;2019</text>
</g>
<!-- 4&#45;&gt;6 -->
<g id="edge12" class="edge">
<title>4&#45;&gt;6</title>
<path fill="none" stroke="grey" stroke-width="2" d="M462.42,-567.66C496.53,-515.72 588.45,-357.87 530.5,-243 523.47,-229.06 511.97,-217.31 499.52,-207.76"/>
<polygon fill="grey" stroke="grey" stroke-width="2" points="501.39,-204.8 491.23,-201.8 497.31,-210.48 501.39,-204.8"/>
</g>
<!-- 4&#45;&gt;8 -->
<g id="edge16" class="edge">
<title>4&#45;&gt;8</title>
<path fill="none" stroke="grey" stroke-width="2" d="M404.01,-567.92C380.91,-558.62 352.98,-546.13 329.5,-532 284.49,-504.92 237.95,-466.47 207.35,-439.48"/>
<polygon fill="grey" stroke="grey" stroke-width="2" points="209.34,-436.57 199.54,-432.54 204.69,-441.8 209.34,-436.57"/>
</g>
<!-- 10 -->
<g id="node11" class="node">
<title>10</title>
<path fill="none" stroke="#d87d56" stroke-width="2" d="M643,-207C643,-207 536,-207 536,-207 530,-207 524,-201 524,-195 524,-195 524,-156 524,-156 524,-150 530,-144 536,-144 536,-144 643,-144 643,-144 649,-144 655,-150 655,-156 655,-156 655,-195 655,-195 655,-201 649,-207 643,-207"/>
<text text-anchor="middle" x="589.5" y="-195" font-family="sans" font-size="10.00">eval_proj</text>
<text text-anchor="middle" x="589.5" y="-184" font-family="sans" font-size="10.00">base_eval: chirps</text>
<text text-anchor="middle" x="589.5" y="-173" font-family="sans" font-size="10.00">ds_method: bc</text>
<text text-anchor="middle" x="589.5" y="-162" font-family="sans" font-size="10.00">period_eval: 1980&#45;2005</text>
<text text-anchor="middle" x="589.5" y="-151" font-family="sans" font-size="10.00">period_proj: 2006&#45;2019</text>
</g>
<!-- 4&#45;&gt;10 -->
<g id="edge20" class="edge">
<title>4&#45;&gt;10</title>
<path fill="none" stroke="grey" stroke-width="2" d="M510.18,-575.51C557.35,-566.64 617.64,-551.81 632.5,-532 703.47,-437.41 645.24,-287.13 610.62,-216.13"/>
<polygon fill="grey" stroke="grey" stroke-width="2" points="613.7,-214.46 606.12,-207.06 607.43,-217.57 613.7,-214.46"/>
</g>
<!-- 11 -->
<g id="node12" class="node">
<title>11</title>
<path fill="none" stroke="#d8cb56" stroke-width="2" d="M611,-532C611,-532 568,-532 568,-532 562,-532 556,-526 556,-520 556,-520 556,-508 556,-508 556,-502 562,-496 568,-496 568,-496 611,-496 611,-496 617,-496 623,-502 623,-508 623,-508 623,-520 623,-520 623,-526 617,-532 611,-532"/>
<text text-anchor="middle" x="589.5" y="-511.5" font-family="sans" font-size="10.00">get_chirps</text>
</g>
<!-- 4&#45;&gt;11 -->
<g id="edge21" class="edge">
<title>4&#45;&gt;11</title>
<path fill="none" stroke="grey" stroke-width="2" d="M484.5,-567.88C503.24,-558.44 526.67,-546.64 546.65,-536.58"/>
<polygon fill="grey" stroke="grey" stroke-width="2" points="548.49,-539.57 555.85,-531.95 545.34,-533.32 548.49,-539.57"/>
</g>
<!-- 4&#45;&gt;12 -->
<g id="edge23" class="edge">
<title>4&#45;&gt;12</title>
<path fill="none" stroke="grey" stroke-width="2" d="M390.88,-584.09C306.96,-579.23 156.24,-556.64 84.5,-460 29.72,-386.21 44.61,-269.66 56.78,-211.68"/>
<polygon fill="grey" stroke="grey" stroke-width="2" points="60.2,-212.41 58.93,-201.89 53.36,-210.91 60.2,-212.41"/>
</g>
<!-- 5 -->
<g id="node6" class="node">
<title>5</title>
<path fill="none" stroke="#b6d856" stroke-width="2" d="M354,-108C354,-108 307,-108 307,-108 301,-108 295,-102 295,-96 295,-96 295,-84 295,-84 295,-78 301,-72 307,-72 307,-72 354,-72 354,-72 360,-72 366,-78 366,-84 366,-84 366,-96 366,-96 366,-102 360,-108 354,-108"/>
<text text-anchor="middle" x="330.5" y="-87.5" font-family="sans" font-size="10.00">merge_hist</text>
</g>
<!-- 5&#45;&gt;0 -->
<g id="edge2" class="edge">
<title>5&#45;&gt;0</title>
<path fill="none" stroke="grey" stroke-width="2" d="M322.59,-71.7C318.95,-63.73 314.55,-54.1 310.51,-45.26"/>
<polygon fill="grey" stroke="grey" stroke-width="2" points="313.66,-43.74 306.32,-36.1 307.29,-46.65 313.66,-43.74"/>
</g>
<!-- 6&#45;&gt;5 -->
<g id="edge9" class="edge">
<title>6&#45;&gt;5</title>
<path fill="none" stroke="grey" stroke-width="2" d="M407.5,-149.45C392.79,-138.28 375.57,-125.21 361.15,-114.27"/>
<polygon fill="grey" stroke="grey" stroke-width="2" points="363.1,-111.36 353.02,-108.1 358.87,-116.93 363.1,-111.36"/>
</g>
<!-- 7&#45;&gt;6 -->
<g id="edge11" class="edge">
<title>7&#45;&gt;6</title>
<path fill="none" stroke="grey" stroke-width="2" d="M441.79,-242.86C441.6,-232.77 441.38,-221.81 441.19,-211.77"/>
<polygon fill="grey" stroke="grey" stroke-width="2" points="444.69,-211.63 440.99,-201.7 437.69,-211.77 444.69,-211.63"/>
</g>
<!-- 7&#45;&gt;10 -->
<g id="edge18" class="edge">
<title>7&#45;&gt;10</title>
<path fill="none" stroke="grey" stroke-width="2" d="M494.33,-242.86C508.15,-233.22 523.11,-222.8 536.97,-213.13"/>
<polygon fill="grey" stroke="grey" stroke-width="2" points="539.24,-215.81 545.44,-207.22 535.24,-210.07 539.24,-215.81"/>
</g>
<!-- 8&#45;&gt;5 -->
<g id="edge10" class="edge">
<title>8&#45;&gt;5</title>
<path fill="none" stroke="grey" stroke-width="2" d="M167.95,-380.31C163.18,-347.26 158.81,-288.16 178.5,-243 202.94,-186.94 258.37,-140.37 295.1,-114.11"/>
<polygon fill="grey" stroke="grey" stroke-width="2" points="297.37,-116.8 303.55,-108.19 293.35,-111.06 297.37,-116.8"/>
</g>
<!-- 9 -->
<g id="node10" class="node">
<title>9</title>
<path fill="none" stroke="#56d86b" stroke-width="2" d="M529.5,-108C529.5,-108 479.5,-108 479.5,-108 473.5,-108 467.5,-102 467.5,-96 467.5,-96 467.5,-84 467.5,-84 467.5,-78 473.5,-72 479.5,-72 479.5,-72 529.5,-72 529.5,-72 535.5,-72 541.5,-78 541.5,-84 541.5,-84 541.5,-96 541.5,-96 541.5,-102 535.5,-108 529.5,-108"/>
<text text-anchor="middle" x="504.5" y="-87.5" font-family="sans" font-size="10.00">merge_eval</text>
</g>
<!-- 9&#45;&gt;0 -->
<g id="edge3" class="edge">
<title>9&#45;&gt;0</title>
<path fill="none" stroke="grey" stroke-width="2" d="M467.19,-76.32C429.73,-63.59 372.36,-44.1 335.14,-31.45"/>
<polygon fill="grey" stroke="grey" stroke-width="2" points="336.26,-28.14 325.67,-28.23 334.01,-34.76 336.26,-28.14"/>
</g>
<!-- 10&#45;&gt;9 -->
<g id="edge17" class="edge">
<title>10&#45;&gt;9</title>
<path fill="none" stroke="grey" stroke-width="2" d="M558.33,-143.88C548.71,-134.43 538.25,-124.15 529.13,-115.19"/>
<polygon fill="grey" stroke="grey" stroke-width="2" points="531.42,-112.54 521.83,-108.03 526.51,-117.53 531.42,-112.54"/>
</g>
<!-- 11&#45;&gt;10 -->
<g id="edge19" class="edge">
<title>11&#45;&gt;10</title>
<path fill="none" stroke="grey" stroke-width="2" d="M589.5,-495.85C589.5,-444.6 589.5,-291.56 589.5,-217.52"/>
<polygon fill="grey" stroke="grey" stroke-width="2" points="593,-217.19 589.5,-207.19 586,-217.19 593,-217.19"/>
</g>
<!-- 12&#45;&gt;0 -->
<g id="edge4" class="edge">
<title>12&#45;&gt;0</title>
<path fill="none" stroke="grey" stroke-width="2" d="M103.19,-149.34C147.78,-119.59 221.35,-70.49 264.33,-41.8"/>
<polygon fill="grey" stroke="grey" stroke-width="2" points="266.39,-44.64 272.76,-36.18 262.5,-38.82 266.39,-44.64"/>
</g>
</g>
</svg>
